<svg height="20" viewBox="0 0 20 20" width="20" xmlns="http://www.w3.org/2000/svg"><g fill="none" fill-rule="evenodd" transform="translate(2 2)"><path d="m8 16c-4.418278 0-8-3.581722-8-8s3.581722-8 8-8 8 3.581722 8 8-3.581722 8-8 8zm5.2-3.3c1.2-1.3 1.8-3 1.8-4.7s-.7-3.4-1.8-4.7c-.2-.2-.4-.3-.7-.3h-5.5c-1.1 0-2 .9-2 2h-3c-.2 0-.4.1-.5.3-.1.4-.2.7-.3 1.1-.1.3.1.5.4.6h.1 3.3v4c0 1.1.9 2 2 2h5.5c.3 0 .5-.1.7-.3z" fill="#a5b3bb"/><path d="m15.418483 5c.2552993.63069625.4325041 1.30135991.5196232 2h-10.9381062v-2z" fill="#0d2b3e"/></g></svg>